<?xml version="1.0" encoding="utf-8" ?>
<svg xmlns="http://www.w3.org/2000/svg" xmlns:xlink="http://www.w3.org/1999/xlink" width="728" height="620">
	<path fill="#FEFEFE" transform="scale(0.605469 0.605469)" d="M0 0L1200.97 0C1201.62 1.1345 1201.87 1.91351 1201.93 3.21668C1202.67 19.4511 1202 36.0471 1202 52.3133L1202.01 149.154L1202 446.704L1202.01 901.926L1202 989.823C1202 995.866 1202.95 1018.8 1201.64 1022.72C1201.49 1023.14 1201.18 1023.64 1200.97 1024L0 1024L0 0ZM753.727 43.6671C731.485 45.0929 713.747 53.5963 699.055 70.4177C681.674 90.3193 681.885 112.068 681.844 136.75L681.825 171.874C681.877 188.348 681.895 203.129 673.02 217.729C662.939 234.313 646.818 242.179 630.666 251.484C614.059 261.051 597.687 271.035 581.017 280.486C536.539 305.7 500.139 326.033 490.735 381.379C487.301 401.59 488.709 422.842 488.743 443.29C488.758 452.283 490.216 470.816 486.885 478.362C484.393 484.006 479.033 487.211 473.003 487.589C466.302 488.01 375.873 461.547 366.026 457.906C362.534 456.615 359.021 454.912 356.221 452.419C353.057 449.601 352.239 442.366 352.127 438.302C351.617 419.902 352.284 401.328 352.272 382.909L352.243 257.069L352.202 184.215C352.176 171.811 351.298 158.711 352.391 146.37C352.797 141.783 353.859 138.649 357.163 135.258C358.705 133.677 360.434 132.529 362.491 131.735C379.181 125.292 397.208 121.387 414.376 116.315C425.886 112.915 462.631 100.584 472.193 100.369C476.47 100.272 480.833 102.729 483.821 105.649C486.421 108.189 487.571 112.357 488.063 115.893C489.3 124.789 488.517 134.71 488.525 143.729L488.522 195.535C488.485 205.259 486.932 218.192 490.733 227.333C493.418 233.788 498.792 237.358 505.732 237.559C515.141 237.833 523.742 233.316 530.403 226.928C540.086 217.64 545.125 206.002 545.366 192.67C545.605 179.454 545.219 166.185 545.204 152.964C545.182 134.202 547.273 114.187 542.152 96.0039C538.849 84.2778 532.881 74.466 524.398 65.7422C510.658 51.6132 491.658 44.0405 472.071 43.8384C466.387 43.7798 460.983 44.4075 455.429 45.6154C435.464 49.9568 413.464 57.5676 393.572 63.3942C376.601 68.3655 352.795 73.9197 337.197 80.8849Q334.459 82.1328 331.845 83.6219Q329.231 85.1111 326.762 86.8294Q324.292 88.5477 321.987 90.4812Q319.682 92.4148 317.561 94.5479C300.923 111.003 295.289 131.439 295.289 154.2L295.31 366.826L295.278 417.791C295.242 429.878 294.296 442.917 296.485 454.811Q296.738 456.119 297.039 457.418Q297.34 458.716 297.689 460.002Q298.038 461.288 298.435 462.56Q298.831 463.832 299.275 465.089Q299.718 466.346 300.208 467.585Q300.697 468.825 301.233 470.045Q301.768 471.266 302.348 472.466Q302.928 473.665 303.552 474.843Q304.176 476.02 304.843 477.174Q305.51 478.328 306.22 479.456Q306.93 480.584 307.68 481.685Q308.431 482.786 309.222 483.858Q310.013 484.931 310.844 485.973Q311.674 487.016 312.542 488.027Q313.411 489.038 314.316 490.016Q315.221 490.994 316.162 491.938C322.063 497.826 328.788 503.41 336.369 506.998C353.392 515.056 377.009 519.852 395.437 525.169C415.407 530.931 435.275 538.161 455.592 542.585C461.139 543.793 466.793 544.242 472.464 544.248Q474.827 544.24 477.186 544.098C498.969 541.825 515.988 533.389 529.885 516.222C545.499 496.935 545.434 475.716 545.364 452.283L545.277 417.215C545.293 400.229 545.764 384.482 555.044 369.559C565.016 353.524 581.956 345.425 597.754 336.267L651.378 304.788C663.628 297.672 676.829 291.02 688.354 282.823C713.71 264.791 731.943 236.96 737.05 206.159C740.609 184.688 739.018 159.755 738.96 137.955C738.924 124.245 735.068 103.023 754.194 100.671C756.788 100.352 759.29 100.732 761.813 101.306C769.14 102.97 776.329 105.498 783.548 107.598C796.049 111.234 808.572 114.707 821.044 118.457C834.735 122.573 849.025 125.967 862.44 130.87C865.08 131.835 867.612 133.188 869.754 135.023C874.015 138.674 874.875 142.724 875.115 148.05C875.839 164.132 875.205 180.481 875.251 196.589L875.221 307.383L875.108 398.108C875.075 412.088 875.941 426.519 875.086 440.435C874.825 444.679 874.416 448.318 871.448 451.628C869.409 453.901 866.668 455.758 863.833 456.88C851.573 461.732 837.93 464.702 825.254 468.457L781.028 481.509C773.178 483.794 763.662 487.704 755.466 487.966C750.835 488.115 746.598 485.79 743.411 482.563C740.647 479.764 739.771 475.566 739.281 471.767C738.101 462.617 738.846 452.763 738.86 443.519L738.949 389.804C738.958 380.653 740.463 368.178 736.688 359.723C733.974 353.644 727.989 350.062 721.409 349.838C712.199 349.526 703.671 356.492 697.442 362.552C687.234 372.483 681.91 382.333 681.78 396.638L681.758 443.321C681.789 472.982 679.925 499.058 702.745 522.036Q704.03 523.351 705.379 524.6Q706.728 525.85 708.138 527.03Q709.548 528.21 711.015 529.318Q712.483 530.426 714.004 531.46Q715.525 532.493 717.095 533.449Q718.666 534.405 720.283 535.281Q721.899 536.157 723.558 536.951Q725.216 537.745 726.913 538.455Q728.609 539.165 730.338 539.789Q732.068 540.413 733.827 540.95Q735.585 541.487 737.369 541.936Q739.152 542.384 740.956 542.742Q742.759 543.101 744.578 543.368Q746.398 543.636 748.228 543.812Q750.058 543.989 751.895 544.073Q753.732 544.158 755.571 544.15C761.651 544.148 767.6 543.373 773.533 542.071C792.719 537.862 811.848 531.12 830.754 525.687C848.991 520.447 871.895 515.604 888.924 507.851Q892.075 506.398 895.082 504.666Q898.088 502.933 900.926 500.936Q903.763 498.939 906.408 496.693Q909.053 494.448 911.484 491.972C921.792 481.493 928.082 468.892 930.725 454.435C933.159 441.119 932.343 427.04 932.392 413.543L932.528 355.672C932.581 287.735 933.102 219.732 932.171 151.804C931.869 129.8 925.953 110.046 909.803 94.4395Q907.486 92.2003 904.978 90.1777Q902.469 88.1551 899.79 86.3653Q897.11 84.5755 894.281 83.0329Q891.452 81.4904 888.496 80.2074C878.633 75.9218 868.038 73.4007 857.729 70.4333L816.022 58.4031C801.519 54.3457 787.29 49.0825 772.609 45.6669C767.279 44.4267 761.732 43.458 756.241 43.555Q754.983 43.5779 753.727 43.6671ZM131.945 751.174C131.327 794.795 131.546 838.47 131.644 882.096C131.696 905.612 131.102 929.23 131.76 952.732C149.423 952.824 167.188 953.289 184.839 952.649L184.92 872.98C204.9 872.492 224.889 873.108 244.87 872.735C245.394 899.458 244.496 926.244 245.193 952.943L293.728 952.94C295.417 952.935 296.94 953.274 298.303 952.211C299.367 945.982 298.548 938.524 298.504 932.174L298.381 892.857L298.244 751.199L244.84 751.198C245.008 776.155 245.688 801.259 245.079 826.203C225.169 826.074 205.16 826.539 185.27 825.977C184.621 801.029 185.088 776.048 184.851 751.092L131.945 751.174ZM426.042 751.128L426.127 952.798Q470.884 953.093 515.641 952.922C530.084 952.877 544.892 953.559 559.282 952.576L559.33 907.901C532.743 907.906 506.106 908.259 479.526 907.829L479.42 890.939C479.416 884.692 479.316 878.427 479.444 872.183L545.095 872.01Q545.052 849.735 544.68 827.463Q512.034 827.255 479.388 827.403Q479.348 811.585 479.506 795.768C505.069 795.632 530.678 796.054 556.23 795.705C556.277 780.862 556.607 765.938 555.901 751.111L426.042 751.128ZM655.916 751.158L697.054 890.592L710.04 934.552C711.768 940.584 713.893 946.767 715.151 952.909C736.735 952.799 758.52 953.42 780.079 952.538L807.092 860.564C814.034 837.438 821.901 814.156 827.704 790.737C831.722 777.83 836.193 764.44 838.606 751.143L784.812 751.086Q772.792 804.983 759.855 858.668C756.297 873.77 753.759 889.443 749.367 904.302C743.033 887.275 740.633 868.851 736.535 851.185C728.804 817.858 720.601 784.521 712.277 751.336Q684.097 750.969 655.916 751.158ZM916.872 751.36L917.07 751.947C922.181 766.72 930.263 781.288 936.931 795.44C939.474 800.838 941.525 806.47 943.989 811.91L964.456 856.29C967.922 863.922 974.815 875.28 976.236 883.13C977.609 890.715 976.807 899.426 976.778 907.134Q976.579 930.007 976.692 952.88L1029.22 952.928C1033.08 944.636 1027.81 896.423 1031.16 882.892C1033.69 872.659 1054.23 836.061 1053.82 830.565C1056.55 827.924 1089.89 754.264 1089.99 752.186C1090.02 751.694 1089.97 751.555 1089.88 751.126L1034.47 751.145C1034.91 754.898 1007.3 829.85 1003.92 838.953C997.517 822.854 992.548 806.087 986.848 789.717C982.432 777.036 976.877 764.057 973.362 751.159C954.571 751.017 935.649 750.632 916.872 751.36Z"/>
	<path transform="scale(0.605469 0.605469)" d="M477.186 544.098Q474.827 544.24 472.464 544.248C466.793 544.242 461.139 543.793 455.592 542.585C435.275 538.161 415.407 530.931 395.437 525.169C377.009 519.852 353.392 515.056 336.369 506.998C328.788 503.41 322.063 497.826 316.162 491.938Q315.221 490.994 314.316 490.016Q313.411 489.038 312.542 488.027Q311.674 487.016 310.844 485.973Q310.013 484.931 309.222 483.858Q308.431 482.786 307.68 481.685Q306.93 480.584 306.22 479.456Q305.51 478.328 304.843 477.174Q304.176 476.02 303.552 474.843Q302.928 473.665 302.348 472.466Q301.768 471.266 301.233 470.045Q300.697 468.825 300.208 467.585Q299.718 466.346 299.275 465.089Q298.831 463.832 298.435 462.56Q298.038 461.288 297.689 460.002Q297.34 458.716 297.039 457.418Q296.738 456.119 296.485 454.811C294.296 442.917 295.242 429.878 295.278 417.791L295.31 366.826L295.289 154.2C295.289 131.439 300.923 111.003 317.561 94.5479Q319.682 92.4148 321.987 90.4812Q324.292 88.5477 326.762 86.8294Q329.231 85.111 331.845 83.6219Q334.459 82.1328 337.197 80.8849C352.795 73.9197 376.601 68.3655 393.572 63.3942C413.464 57.5676 435.464 49.9568 455.429 45.6154C460.983 44.4075 466.387 43.7798 472.071 43.8384C491.658 44.0405 510.658 51.6132 524.398 65.7422C532.881 74.466 538.849 84.2778 542.152 96.0039C547.273 114.187 545.182 134.202 545.204 152.964C545.219 166.185 545.605 179.454 545.366 192.67C545.125 206.002 540.086 217.64 530.403 226.928C523.742 233.316 515.141 237.833 505.732 237.559C498.792 237.358 493.418 233.788 490.733 227.333C486.932 218.192 488.485 205.259 488.522 195.535L488.525 143.729C488.517 134.71 489.3 124.789 488.063 115.893C487.571 112.357 486.421 108.189 483.821 105.649C480.833 102.729 476.47 100.272 472.193 100.369C462.631 100.584 425.886 112.915 414.376 116.315C397.208 121.387 379.181 125.292 362.491 131.735C360.434 132.529 358.705 133.677 357.163 135.258C353.859 138.649 352.797 141.783 352.391 146.37C351.298 158.711 352.176 171.811 352.202 184.215L352.243 257.069L352.272 382.909C352.284 401.328 351.617 419.902 352.127 438.302C352.239 442.366 353.057 449.601 356.221 452.419C359.021 454.912 362.534 456.615 366.026 457.906C375.873 461.547 466.302 488.01 473.003 487.589C479.033 487.211 484.393 484.006 486.885 478.362C490.216 470.816 488.758 452.283 488.743 443.29C488.709 422.842 487.301 401.59 490.735 381.379C500.139 326.033 536.539 305.7 581.017 280.486C597.687 271.035 614.059 261.051 630.666 251.484C646.818 242.179 662.939 234.313 673.02 217.729C681.895 203.129 681.877 188.348 681.825 171.874L681.844 136.75C681.885 112.068 681.674 90.3193 699.055 70.4177C713.747 53.5963 731.485 45.0929 753.727 43.6671Q754.983 43.5779 756.241 43.555C761.732 43.458 767.279 44.4267 772.609 45.6669C787.29 49.0825 801.519 54.3457 816.022 58.4031L857.729 70.4333C868.038 73.4007 878.633 75.9218 888.496 80.2074Q891.452 81.4904 894.281 83.0329Q897.11 84.5755 899.79 86.3653Q902.469 88.1551 904.978 90.1777Q907.486 92.2003 909.803 94.4395C925.953 110.046 931.869 129.8 932.171 151.804C933.102 219.732 932.581 287.735 932.528 355.672L932.392 413.543C932.343 427.04 933.159 441.119 930.725 454.435C928.082 468.892 921.792 481.493 911.484 491.972Q909.053 494.448 906.408 496.693Q903.763 498.939 900.926 500.936Q898.088 502.933 895.081 504.666Q892.075 506.398 888.924 507.851C871.895 515.604 848.991 520.447 830.754 525.687C811.848 531.12 792.719 537.862 773.533 542.071C767.6 543.373 761.651 544.148 755.571 544.15Q753.732 544.158 751.895 544.073Q750.058 543.989 748.228 543.812Q746.398 543.636 744.578 543.368Q742.759 543.101 740.956 542.742Q739.152 542.384 737.369 541.936Q735.585 541.487 733.827 540.95Q732.068 540.413 730.338 539.789Q728.609 539.165 726.913 538.455Q725.216 537.745 723.558 536.951Q721.899 536.157 720.283 535.281Q718.666 534.405 717.095 533.449Q715.525 532.493 714.004 531.46Q712.483 530.426 711.015 529.318Q709.548 528.21 708.138 527.03Q706.728 525.85 705.379 524.6Q704.03 523.351 702.745 522.036C679.925 499.058 681.789 472.982 681.758 443.321L681.78 396.638C681.91 382.333 687.234 372.483 697.442 362.552C703.671 356.492 712.199 349.526 721.409 349.838C727.989 350.062 733.974 353.644 736.688 359.723C740.463 368.178 738.958 380.653 738.949 389.804L738.86 443.519C738.846 452.763 738.101 462.617 739.281 471.767C739.771 475.566 740.647 479.764 743.411 482.563C746.598 485.79 750.835 488.115 755.466 487.966C763.662 487.704 773.178 483.794 781.028 481.509L825.254 468.457C837.93 464.702 851.573 461.732 863.833 456.88C866.668 455.758 869.409 453.901 871.448 451.628C874.416 448.318 874.825 444.679 875.086 440.435C875.941 426.519 875.075 412.088 875.108 398.108L875.221 307.383L875.251 196.589C875.205 180.481 875.839 164.132 875.115 148.05C874.875 142.724 874.015 138.674 869.754 135.023C867.612 133.188 865.08 131.835 862.44 130.87C849.025 125.967 834.735 122.573 821.044 118.457C808.572 114.707 796.049 111.234 783.548 107.598C776.329 105.498 769.14 102.97 761.813 101.306C759.29 100.732 756.788 100.352 754.194 100.671C735.068 103.023 738.924 124.245 738.96 137.955C739.018 159.755 740.609 184.688 737.05 206.159C731.943 236.96 713.71 264.791 688.354 282.823C676.829 291.02 663.628 297.672 651.378 304.788L597.754 336.267C581.956 345.425 565.016 353.524 555.044 369.559C545.764 384.482 545.293 400.229 545.277 417.215L545.364 452.283C545.434 475.716 545.499 496.935 529.885 516.222C515.988 533.389 498.969 541.825 477.186 544.098Z"/>
	<path transform="scale(0.605469 0.605469)" d="M131.76 952.732C131.102 929.23 131.696 905.612 131.644 882.096C131.546 838.47 131.327 794.795 131.945 751.174L184.851 751.092C185.088 776.048 184.621 801.029 185.27 825.977C205.16 826.539 225.169 826.074 245.079 826.203C245.688 801.259 245.008 776.155 244.84 751.198L298.244 751.199L298.381 892.857L298.504 932.174C298.548 938.524 299.367 945.982 298.303 952.211C296.94 953.274 295.417 952.935 293.728 952.94L245.193 952.943C244.496 926.244 245.394 899.458 244.87 872.735C224.889 873.108 204.9 872.492 184.92 872.98L184.839 952.649C167.188 953.289 149.423 952.824 131.76 952.732Z"/>
	<path transform="scale(0.605469 0.605469)" d="M426.127 952.798L426.042 751.128L555.901 751.111C556.607 765.938 556.277 780.862 556.23 795.705C530.678 796.054 505.069 795.632 479.506 795.768Q479.348 811.585 479.388 827.403Q512.034 827.256 544.68 827.463Q545.052 849.735 545.095 872.01L479.444 872.183C479.316 878.427 479.416 884.692 479.42 890.939L479.526 907.829C506.106 908.259 532.743 907.906 559.33 907.901L559.282 952.576C544.892 953.559 530.084 952.877 515.641 952.922Q470.884 953.094 426.127 952.798Z"/>
	<path transform="scale(0.605469 0.605469)" d="M715.151 952.909C713.893 946.767 711.768 940.584 710.04 934.552L697.054 890.592L655.916 751.158Q684.097 750.969 712.277 751.336C720.601 784.521 728.804 817.858 736.535 851.185C740.633 868.851 743.033 887.275 749.367 904.302C753.759 889.443 756.297 873.77 759.855 858.668Q772.791 804.983 784.812 751.086L838.606 751.143C836.193 764.44 831.722 777.83 827.704 790.737C821.901 814.156 814.034 837.438 807.092 860.564L780.079 952.538C758.52 953.42 736.735 952.799 715.151 952.909Z"/>
	<path transform="scale(0.605469 0.605469)" d="M976.692 952.88Q976.579 930.006 976.778 907.134C976.807 899.426 977.609 890.715 976.236 883.13C974.815 875.28 967.922 863.922 964.456 856.29L943.989 811.91C941.525 806.47 939.474 800.838 936.931 795.44C930.263 781.288 922.181 766.72 917.07 751.947L916.872 751.36C935.649 750.632 954.571 751.017 973.362 751.159C976.877 764.057 982.432 777.036 986.848 789.717C992.548 806.087 997.517 822.854 1003.92 838.953C1007.3 829.85 1034.91 754.898 1034.47 751.145L1089.88 751.126C1089.97 751.555 1090.02 751.694 1089.99 752.186C1089.89 754.264 1056.55 827.924 1053.82 830.565C1054.23 836.061 1033.69 872.659 1031.16 882.892C1027.81 896.423 1033.08 944.636 1029.22 952.928L976.692 952.88Z"/>
</svg>
