<?xml version="1.0" encoding="utf-8" ?>
<svg xmlns="http://www.w3.org/2000/svg" xmlns:xlink="http://www.w3.org/1999/xlink" width="1024" height="1024">
	<path fill="#EBFFE2" d="M764.914 402.436C764.754 402.325 764.591 402.218 764.434 402.102C761.728 400.103 760.044 397.994 759.63 394.562C758.578 385.838 766.412 377.214 771.536 370.914C796.451 340.285 854.543 299.275 891.932 288.009C896.976 286.489 902.126 285.745 907.353 285.211C914.202 284.671 921.992 285.831 927.503 290.218C931.046 293.039 933.12 297.242 933.614 301.702C936.536 328.094 891.807 381.339 874.248 401.437C868.604 407.898 862.212 413.763 856.795 420.392L856.168 420.194L856.919 420.8L856.098 421.467C859.793 423.118 872.002 420.895 877.173 421.416C880.263 421.726 883.586 422.804 886.478 423.921C892.386 426.203 896.907 430.425 899.35 436.298C906.178 452.712 895.181 474.006 889.011 489.156C893.112 488.113 897.345 487.337 901.505 486.559C908.342 485.28 920.784 483.156 926.956 487.393L926.426 488.91C922.32 490.865 915.261 489.802 910.604 490.536C901.68 491.944 893.028 494.857 884.432 497.549C871.261 523.062 850.131 546.776 827.682 564.552C815.396 574.281 798.5 586.121 782.669 587.674C780.257 587.91 777.758 587.531 775.361 587.253C773.619 585.834 771.863 584.408 770.619 582.508C768.929 579.929 768.883 576.864 769.607 573.952C771.217 567.475 775.721 561.239 779.826 556.113C796.898 534.792 820.635 518.098 844.967 506.076Q853.139 502.089 861.548 498.63C865.361 497.095 869.755 495.96 873.232 493.774C873.359 493.694 873.482 493.609 873.608 493.527C880.959 480.912 891.942 455.396 889.798 441.121C889.098 436.465 887.213 431.82 883.197 429.087C874.926 423.46 859.808 428.595 850.944 430.315C846.644 444.724 840.704 458.819 834.902 472.678C829.061 486.632 823.291 500.536 816.333 513.987C815.071 516.427 813.806 519.731 810.951 520.517C809.343 520.96 807.418 520.946 805.961 520.091C805.275 517.623 806.338 514.931 807.269 512.651C817.868 487.298 828.672 461.465 837.233 435.349C835.614 436.152 833.957 436.921 832.272 437.579C830.455 438.288 827.907 438.959 826.109 437.847C824.766 437.018 823.756 434.584 823.828 433.017C823.866 432.212 823.939 431.43 824.598 430.911C826.208 429.643 828.684 429.354 830.545 428.467C834.885 426.399 842.214 420.144 845.082 416.298C847.755 412.714 849.263 407.902 850.929 403.769C855.674 391.994 880.635 329.432 886.844 323.878C889.586 321.425 895.803 318.306 899.575 318.968C900.989 319.216 901.108 319.47 901.87 320.574C902.163 323.897 897.611 327.29 895.695 329.734C894.659 331.056 893.967 332.623 893.242 334.128C883.879 353.572 875.881 373.457 867.032 393.111C884.889 372.27 906.965 344.589 918.208 319.548C920.848 313.669 924.708 302.267 921.781 295.956C920.96 294.184 919.52 293.652 917.762 293.103C905.345 289.227 887.307 298.901 876.372 304.51C842.881 321.688 803.095 349.341 779.491 378.757C775.913 383.216 770.857 389.304 769.352 394.934C769.007 396.225 769.082 396.793 769.711 397.939C772.031 397.068 776.006 395.138 778.451 395.589L778.952 396.459C778.744 397.851 778.603 398.956 777.561 400.024C774.508 403.156 768.891 402.622 764.914 402.436ZM865.854 505.04Q861.133 507.062 856.516 509.313Q851.899 511.564 847.398 514.038Q842.897 516.512 838.523 519.204Q834.148 521.896 829.911 524.798Q825.673 527.701 821.583 530.807Q817.493 533.914 813.56 537.217Q809.627 540.52 805.86 544.012Q802.093 547.504 798.502 551.176C792.072 557.743 785.205 565.51 781.679 574.133C781.14 575.45 781.008 576.605 781.027 578.013L781.673 578.969C813.057 571.139 849.253 533.041 866.083 505.978L866.099 505.227L865.854 505.04Z"/>
	<path fill="#EBFFE2" d="M506.022 635.1C519.831 631.848 533.412 627.383 547.236 624.063Q582.187 615.433 617.579 608.846Q652.972 602.26 688.687 597.74C707.514 595.412 726.325 593.222 745.301 592.555L743.265 593.215C743.204 593.4 743.159 593.591 743.084 593.771C742.469 595.252 741.598 595.891 740.391 596.845C740.291 596.924 740.211 597.024 740.121 597.114C732.41 598.586 724.502 599.286 716.725 600.371Q693.979 603.579 671.298 607.214Q612.632 617.727 554.745 631.918C539.482 635.656 517.461 640.091 503.419 646.004C500.64 653.753 499.213 662.524 497.359 670.568Q487.951 711.033 482.458 752.212Q481.18 761.113 480.348 770.067C479.883 775.083 479.958 781.244 478.446 786.022C477.952 787.584 477.296 787.878 475.93 788.509C474.948 788.147 474.628 788.083 474.049 787.152C471.653 783.302 471.918 776.036 471.86 771.631C471.331 731.534 482.1 687.697 490.799 648.659C476.462 654.316 461.079 657.889 446.424 662.726L402.698 676.924C391.268 680.698 379.626 685.307 367.719 687.368C365.553 687.743 362.074 687.832 360.323 686.207C359.33 685.284 359.391 684.62 359.381 683.394C360.213 681.578 361.428 680.651 363.245 679.887C365.39 678.985 367.789 678.842 370.045 678.324C373.983 677.421 377.965 676.255 381.78 674.918C409.277 665.276 436.632 655.654 464.484 647.054C470.677 645.142 489 640.729 493.358 638.247C493.527 638.151 493.694 638.051 493.862 637.952C503.667 606.102 512.563 574.109 523.246 542.513C529.32 524.548 535.719 506.587 542.203 488.766C543.452 485.334 549.294 471.456 549.513 469.029L548.77 469.414L549.561 469.284L549.246 469.161C547.025 471.136 538.83 489.255 536.602 493.53C522.534 520.527 488.004 582.728 464.276 598.865C460.508 601.427 454.707 604.374 450.057 603.265C448.187 602.819 446.716 601.546 445.773 599.899C442.203 593.665 445.154 583.942 446.693 577.373C438.414 586.363 431.447 599.259 420.06 604.687C417.421 605.944 414.112 606.939 411.272 605.73C409.467 604.961 408.174 603.419 407.561 601.577C405.572 595.603 409.057 587.701 411.552 582.29Q408.894 583.853 406.194 585.343C401.391 587.951 395.202 590.359 389.761 588.516C387.567 587.773 385.801 586.292 384.816 584.181C382.173 578.517 385.069 571.051 386.89 565.563C376.48 574.433 356.941 602.194 349.939 614.19C348.328 616.951 347.072 619.964 345.658 622.828C344.404 625.366 342.764 628.432 339.824 629.266C338.047 629.769 334.769 629.412 333.272 628.283C332.237 627.504 331.683 626.618 331.546 625.318C331.263 622.634 344.712 587.244 346.515 581.75Q349.166 573.643 351.678 565.492C352.388 563.14 352.817 560.547 353.721 558.279Q353.986 557.634 354.385 557.062Q354.784 556.491 355.299 556.02Q355.573 555.771 355.871 555.55Q356.17 555.33 356.488 555.141Q356.807 554.952 357.144 554.797Q357.48 554.641 357.831 554.52Q358.181 554.399 358.542 554.315Q358.903 554.23 359.271 554.182Q359.638 554.135 360.009 554.125Q360.379 554.115 360.749 554.142C362.452 554.259 364.159 554.975 365.115 556.462C367.673 560.443 360.674 576.55 359.092 581.482C364.843 575.101 369.757 568.043 376.173 562.273C380.557 558.329 385.581 554.954 391.759 555.45C394.004 555.631 397.217 556.385 398.569 558.399C401.325 562.503 396.14 576.451 394.957 581.768C403.777 577.726 416.913 568.775 420.792 559.363C421.63 557.33 421.176 553.91 422.652 552.322C424.045 550.825 426.261 550.428 428.216 550.43C430.189 550.433 431.628 550.68 433.017 552.07C435.439 559.04 422.458 585.438 419.477 594.105C429.22 585.248 437.099 574.808 445.313 564.59C448.47 560.662 452.444 556.76 454.973 552.417C457.964 547.282 458.321 538.019 461.955 533.718C463.046 532.426 464.519 532.027 466.157 531.937C468.104 531.829 470.933 532.15 472.326 533.678C473.551 535.022 473.501 537.047 473.135 538.713C472.287 542.567 470.138 546.583 468.71 550.31C463.345 564.318 456.779 578.935 455.824 594.066C486.663 570.229 525.542 494.348 543.309 458.312C547.833 449.137 552.798 440.017 556.748 430.584Q526.473 440.457 496.065 449.915C487.051 452.69 465.512 459.857 457.186 454.911C455.72 454.04 455.543 453.161 455.187 451.632C455.435 450.515 455.68 449.687 456.41 448.782C459.775 444.603 486.484 429.41 491.637 429.044C492.805 428.961 493.328 429.085 494.26 429.829C493.33 433.865 473.412 445.072 468.673 448.592C487.38 444.303 504.885 437.796 523.091 431.821C536.401 427.454 549.792 423.753 563.306 420.106L581.966 379.478C585.045 372.689 587.749 365.03 591.706 358.723C592.802 356.976 594.245 355.272 596.159 354.402C597.697 353.703 600.147 353.443 601.704 354.24C603.003 354.904 603.861 355.954 604.384 357.297Q604.652 357.981 604.802 358.7Q604.952 359.419 604.98 360.153Q605.008 360.888 604.913 361.616Q604.819 362.344 604.604 363.047C602.702 369.433 598.835 375.928 596.103 382.047C591.557 392.231 587.392 402.618 583.139 412.927C589.286 411.349 595.343 409.448 601.505 407.905C609.435 392.342 622.399 359.262 636.168 349.811C637.914 348.612 640.209 347.524 642.368 348.144C644.15 348.655 645.575 350.213 646.41 351.819C650.92 360.482 642.983 391.113 639.934 400.357C648.08 398.947 674.287 394.306 680.716 400.142C681.549 400.897 681.931 401.806 681.756 402.925C681.309 405.774 678.3 407.666 676.189 409.261C674.605 409.317 673.308 409.254 671.759 408.907C671.749 407.63 673.483 406.617 674.256 405.593C674.996 404.613 674.955 404.416 674.756 403.299C666.488 400.826 646.152 405.732 637.156 407.789C628.153 430.411 616.876 451.946 605.387 473.388C598.759 485.757 591.986 499.725 582.83 510.385C579.774 513.944 576.927 516.147 572.716 518.193C570.109 525.2 568.059 532.434 565.88 539.586C573.058 528.18 582.901 510.707 594.56 503.556C597.773 501.587 602.773 499.828 606.557 500.974C608.173 501.464 609.33 502.532 610.067 504.04C613.377 510.817 604.238 538.505 601.781 546.255C606.537 541.082 610.525 534.98 614.872 529.434C622.106 520.203 629.543 511.446 637.47 502.799C640.291 499.721 643.167 495.984 646.37 493.33C647.99 491.987 650.253 491.844 652.268 492.116C653.833 492.327 655.362 492.739 656.244 494.182C657.303 495.916 656.758 498.475 656.405 500.361C655.364 505.912 653.312 511.378 651.594 516.758C648.963 525.003 646.42 533.204 644.428 541.63C658.6 519.515 672.897 495.914 678.391 469.912C679.147 469.003 679.774 468.278 681.039 468.181C682.351 468.081 683.632 468.695 684.526 469.627C685.71 470.862 686.091 472.333 685.963 474.002C684.762 489.704 663.37 535.444 651.708 545.568C648.257 548.565 643.26 550.835 638.581 550.304C637.184 550.145 636.242 549.344 635.48 548.216C630.27 540.497 637.979 521.089 639.867 512.318C634.565 520.259 628.327 527.692 622.427 535.203C617.764 541.139 613.259 547.474 608.105 552.973C605.193 556.081 599.714 560.349 595.186 560.068C593.887 559.987 593.013 559.369 592.233 558.375C586.087 550.539 597.196 520.372 599.145 510.404C587.613 522.258 575.182 542.234 567.002 556.695C564.746 560.683 559.1 572.756 555.617 574.624C553.706 575.648 551.227 575.78 549.182 575.085C548.12 574.723 547.564 574.36 547.187 573.231C545.831 569.172 550.007 559.118 551.145 554.795Q560.22 519.647 571.865 485.264Q583.51 450.882 597.662 417.453Q588.22 420.328 578.829 423.365C575.477 433.678 571.007 443.722 567.274 453.92L537.997 534.794C532.059 551.594 526.139 568.467 520.894 585.498C515.813 601.993 511.34 618.678 506.022 635.1ZM638.882 359.877C634.343 364.236 614.861 399.162 614.568 404.451C614.553 404.707 614.594 404.964 614.629 405.218C619.557 403.986 624.493 403.078 629.442 401.981C632.703 393.032 641.156 368.723 638.882 359.877ZM624.171 410.544L609.948 413.965C605.763 425.895 578.718 494.365 579.168 498.828L579.881 498.335C595.514 474.999 608.458 449.644 620.032 424.081C621.314 421.25 625.55 413.566 625.005 410.63L624.171 410.544Z"/>
	<path fill="#EBFFE2" d="M264.782 600.12C272.463 591.763 279.495 582.578 286.48 573.634Q306.894 547.348 325.636 519.845C346.38 489.121 396.098 411.52 388.46 373.823C387.481 368.989 385.505 363.986 381.118 361.302C376.044 358.197 369.871 358.961 364.402 360.443C351.323 363.987 338.516 371.403 327.031 378.517C260.551 419.696 182.405 509.028 143.451 576.926C137.205 587.813 118.497 622.693 122.699 633.841C125.819 642.117 139.566 635.026 145.131 637.573L145.129 638.418C143.469 640.286 142.085 640.815 139.693 641.404C133.098 643.026 123.85 644.341 117.839 640.463C114.827 638.521 113.041 635.432 112.308 631.97C107.539 609.42 136.716 564.771 149.665 545.614C191.959 483.048 290.484 366.979 367.685 352.104Q370.756 351.879 373.834 351.817C380.688 351.708 387.691 353.533 392.617 358.569C398.974 365.068 400.659 375.329 400.584 384.072C400.135 436.532 328.899 538.82 294.995 579.832C287.773 588.568 280.395 597.004 272.703 605.327C267.575 610.876 261.324 616.571 257.086 622.816C255.667 624.906 254.86 627.189 254.07 629.563Q238.096 677.677 224.786 726.594C222.798 734.133 221.268 741.805 219.353 749.368Q216.214 761.455 214.72 773.854C214.158 778.314 214.029 782.887 213.263 787.311C213.084 788.345 212.974 788.929 212.202 789.691C211.697 789.761 211.238 789.861 210.719 789.75C208.981 789.379 207.633 788.07 206.818 786.573C204.959 783.155 204.159 779.444 204.129 775.571C204.05 765.511 206.697 754.688 208.809 744.89C216.512 709.138 228.138 674.079 238.998 639.174C233.985 641.797 226.014 648.435 219.988 646.645C218.885 646.318 218.1 645.829 217.601 644.746C216.911 643.247 217.265 641.437 217.74 639.935C218.578 637.289 220.274 633.162 222.971 631.928C223.806 631.545 223.596 631.688 224.554 632.03C225.258 634.308 222.458 638.643 221.435 640.714C228.184 636.326 239.919 628.595 244.387 621.821C249.377 614.257 255.133 591.529 258.597 581.713C275.343 534.269 292.826 487.474 312.506 441.138C315.275 434.62 320.103 419.409 323.738 414.246C324.872 412.636 327.463 411.368 329.415 411.093C331.352 410.82 332.807 411.262 334.378 412.358C335.751 414.708 335.353 416.195 334.494 418.708C330.788 429.548 325 439.968 320.626 450.591Q298.292 504.274 278.545 558.962Q273.032 573.938 268.092 589.112C266.895 592.749 265.18 596.358 264.294 600.072L264.782 600.12Z"/>
	<path fill="#EBFFE2" d="M713.944 452.663C712.515 451.488 711.571 449.047 710.16 448.136C709.141 447.478 707.82 448.059 706.566 447.057C707.747 444.744 714.532 436.752 716.54 434.847C717.412 434.02 718.631 433.497 719.707 432.987C719.954 432.994 720.201 432.991 720.447 433.009C722.152 433.136 723.925 433.525 725.008 434.997C727.272 438.075 723.987 446.503 723.511 450.27C722.644 451.035 721.755 451.859 720.755 452.448C718.43 453.817 716.421 453.313 713.944 452.663Z"/>
	<path fill="#EBFFE2" d="M722.711 503.803C716.054 514.508 708.204 527.28 697.52 534.318C694.162 536.53 689.883 538.351 685.794 537.332C683.916 536.864 682.41 535.706 681.447 534.03C678.794 529.413 680.006 522.562 681.219 517.629C683.155 509.752 695.144 478.722 701.275 475.001C702.367 474.986 703.395 475.063 704.476 475.24C706.501 475.572 707.834 476.031 709.084 477.726C709.904 481.582 702.347 495.075 700.444 499.635C696.469 509.162 694.033 518.803 691.639 528.807C700.242 521.992 717.827 497.333 723.769 495.119C724.857 494.714 725.044 494.746 726.046 495.184C726.105 495.373 726.183 495.557 726.222 495.751C726.751 498.4 724.058 501.659 722.711 503.803Z"/>
	<path fill="#DEDEDE" d="M745.301 592.555C749.024 592.468 752.389 592.115 755.793 593.88L755.769 594.534C751.321 596.798 745.046 597 740.121 597.114C740.211 597.024 740.291 596.924 740.391 596.845C741.598 595.891 742.469 595.252 743.084 593.771C743.159 593.591 743.204 593.4 743.265 593.215L745.301 592.555Z"/>
</svg>
